<svg xmlns="http://www.w3.org/2000/svg" version="1.1" xmlns:xlink="http://www.w3.org/1999/xlink" xmlns:svgjs="http://svgjs.dev/svgjs" width="1500" height="1772" viewBox="0 0 1500 1772"><g transform="matrix(1,0,0,1,0.4271864459957442,0.7174089068824969)"><svg viewBox="0 0 209 247" data-background-color="#ffffff" preserveAspectRatio="xMidYMid meet" height="1772" width="1500" xmlns="http://www.w3.org/2000/svg" xmlns:xlink="http://www.w3.org/1999/xlink"><g id="tight-bounds" transform="matrix(1,0,0,1,-0.0595213114754074,-0.09999999999999432)"><svg viewBox="0 0 209.11904262295081 247.2" height="247.2" width="209.11904262295081"><g><svg></svg></g><g><svg viewBox="0 0 209.11904262295081 247.2" height="247.2" width="209.11904262295081"><g transform="matrix(1,0,0,1,0,47.215199999999996)"><svg viewBox="0 0 209.11904262295081 152.7696" height="152.7696" width="209.11904262295081"><g><svg viewBox="0 0 209.11904262295081 152.7696" height="152.7696" width="209.11904262295081"><g><svg viewBox="0 0 209.11904262295081 152.7696" height="152.7696" width="209.11904262295081"><g><svg viewBox="0 0 209.11904262295081 152.7696" height="152.7696" width="209.11904262295081"><g id="textblocktransform"><svg viewBox="0 0 209.11904262295081 152.7696" height="152.7696" width="209.11904262295081" id="textblock"><g><svg viewBox="0 0 209.11904262295081 152.7696" height="152.7696" width="209.11904262295081"><g transform="matrix(1,0,0,1,0,0)"><svg width="209.11904262295081" viewBox="3.8 -36.55 50.1 36.599999999999994" height="152.7696" data-palette-color="#c8c8c8"><path d="M14.15 0L5.3 0Q4.65 0 4.23-0.35 3.8-0.7 3.8-1.25L3.8-1.25 3.8-35.35Q3.8-35.85 4.23-36.2 4.65-36.55 5.3-36.55L5.3-36.55 14.15-36.55Q17.1-36.55 19.48-35.5 21.85-34.45 23.23-32.1 24.6-29.75 24.6-25.9L24.6-25.9 24.6-10.7Q24.6-6.8 23.23-4.45 21.85-2.1 19.48-1.05 17.1 0 14.15 0L14.15 0ZM7.1-33.5L7.1-3.05 14.15-3.05Q17.5-3.05 19.4-4.9 21.3-6.75 21.3-10.7L21.3-10.7 21.3-25.9Q21.3-29.8 19.4-31.65 17.5-33.5 14.15-33.5L14.15-33.5 7.1-33.5ZM33.45 0L33.45 0Q32.8 0 32.3-0.33 31.8-0.65 31.8-1.3L31.8-1.3 31.8-35.35Q31.8-36 32.3-36.27 32.8-36.55 33.45-36.55L33.45-36.55Q34.05-36.55 34.57-36.27 35.1-36 35.1-35.35L35.1-35.35 35.1-17.65 49.55-36.05Q49.9-36.55 50.6-36.55L50.6-36.55Q51-36.55 51.42-36.3 51.85-36.05 52.12-35.68 52.4-35.3 52.4-34.85L52.4-34.85Q52.4-34.7 52.35-34.48 52.3-34.25 52.15-34.1L52.15-34.1 41.4-20.75 53.7-2.25Q53.9-1.95 53.9-1.6L53.9-1.6Q53.9-1.15 53.62-0.78 53.35-0.4 52.92-0.18 52.5 0.05 52 0.05L52 0.05Q51.65 0.05 51.32-0.13 51-0.3 50.75-0.65L50.75-0.65 39.2-18 35.1-12.8 35.1-1.3Q35.1-0.65 34.57-0.33 34.05 0 33.45 0Z" opacity="1" transform="matrix(1,0,0,1,0,0)" fill="#c8c8c8" class="wordmark-text-0" data-fill-palette-color="primary" id="text-0"></path></svg></g></svg></g></svg></g></svg></g><g></g></svg></g></svg></g></svg></g><path d="M0 41.215L0 1 209.119 1 209.119 41.215 195.342 41.215 195.342 14.777 13.777 14.777 13.777 41.215 0 41.215M0 205.985L0 246.2 209.119 246.2 209.119 205.985 195.342 205.985 195.342 232.423 13.777 232.423 13.777 205.985 0 205.985" fill="#c8c8c8" stroke="transparent" data-fill-palette-color="tertiary"></path></svg></g><defs></defs></svg><rect width="209.11904262295081" height="247.2" fill="none" stroke="none" visibility="hidden"></rect></g></svg></g></svg>