<svg width="69" height="22" viewBox="0 0 69 22" fill="#012945" xmlns="http://www.w3.org/2000/svg" class="dark:fill-white desktop-only:hover:fill-primary cursor-pointer"><path d="M0.626953 9.73137C0.626953 8.44778 0.865759 7.32092 1.34337 6.35077C1.83591 5.38062 2.50009 4.63435 3.33591 4.11196C4.17173 3.58957 5.10457 3.32838 6.13442 3.32838C7.01501 3.32838 7.78367 3.50748 8.44039 3.86569C9.11203 4.2239 9.62695 4.69405 9.98516 5.27614V3.50748H13.8135V16H9.98516V14.2314C9.61203 14.8135 9.08964 15.2836 8.418 15.6418C7.76128 16 6.99263 16.1791 6.11203 16.1791C5.0971 16.1791 4.17173 15.9179 3.33591 15.3955C2.50009 14.8582 1.83591 14.1045 1.34337 13.1344C0.865759 12.1493 0.626953 11.0149 0.626953 9.73137ZM9.98516 9.75375C9.98516 8.79853 9.71651 8.0448 9.17919 7.49256C8.65681 6.94032 8.01501 6.6642 7.25382 6.6642C6.49263 6.6642 5.84337 6.94032 5.30606 7.49256C4.78367 8.02987 4.52248 8.77614 4.52248 9.73137C4.52248 10.6866 4.78367 11.4478 5.30606 12.0149C5.84337 12.5672 6.49263 12.8433 7.25382 12.8433C8.01501 12.8433 8.65681 12.5672 9.17919 12.0149C9.71651 11.4627 9.98516 10.709 9.98516 9.75375Z"></path><path d="M20.4115 5.27614C20.7847 4.69405 21.2996 4.2239 21.9563 3.86569C22.613 3.50748 23.3817 3.32838 24.2623 3.32838C25.2921 3.32838 26.225 3.58957 27.0608 4.11196C27.8966 4.63435 28.5533 5.38062 29.0309 6.35077C29.5235 7.32092 29.7697 8.44778 29.7697 9.73137C29.7697 11.0149 29.5235 12.1493 29.0309 13.1344C28.5533 14.1045 27.8966 14.8582 27.0608 15.3955C26.225 15.9179 25.2921 16.1791 24.2623 16.1791C23.3966 16.1791 22.6279 16 21.9563 15.6418C21.2996 15.2836 20.7847 14.8209 20.4115 14.2538V21.9552H16.5832V3.50748H20.4115V5.27614ZM25.8742 9.73137C25.8742 8.77614 25.6056 8.02987 25.0682 7.49256C24.5459 6.94032 23.8966 6.6642 23.1205 6.6642C22.3593 6.6642 21.71 6.94032 21.1727 7.49256C20.6503 8.0448 20.3891 8.79853 20.3891 9.75375C20.3891 10.709 20.6503 11.4627 21.1727 12.0149C21.71 12.5672 22.3593 12.8433 23.1205 12.8433C23.8817 12.8433 24.5309 12.5672 25.0682 12.0149C25.6056 11.4478 25.8742 10.6866 25.8742 9.73137Z"></path><path d="M31.017 9.73137C31.017 8.44778 31.2558 7.32092 31.7334 6.35077C32.226 5.38062 32.8901 4.63435 33.726 4.11196C34.5618 3.58957 35.4946 3.32838 36.5245 3.32838C37.4051 3.32838 38.1737 3.50748 38.8304 3.86569C39.5021 4.2239 40.017 4.69405 40.3752 5.27614V3.50748H44.2036V16H40.3752V14.2314C40.0021 14.8135 39.4797 15.2836 38.808 15.6418C38.1513 16 37.3827 16.1791 36.5021 16.1791C35.4871 16.1791 34.5618 15.9179 33.726 15.3955C32.8901 14.8582 32.226 14.1045 31.7334 13.1344C31.2558 12.1493 31.017 11.0149 31.017 9.73137ZM40.3752 9.75375C40.3752 8.79853 40.1065 8.0448 39.5692 7.49256C39.0468 6.94032 38.4051 6.6642 37.6439 6.6642C36.8827 6.6642 36.2334 6.94032 35.6961 7.49256C35.1737 8.02987 34.9125 8.77614 34.9125 9.73137C34.9125 10.6866 35.1737 11.4478 35.6961 12.0149C36.2334 12.5672 36.8827 12.8433 37.6439 12.8433C38.4051 12.8433 39.0468 12.5672 39.5692 12.0149C40.1065 11.4627 40.3752 10.709 40.3752 9.75375Z"></path><path d="M53.9359 12.7538V16H51.9881C50.6001 16 49.518 15.6642 48.7419 14.9926C47.9658 14.306 47.5777 13.1941 47.5777 11.6567V6.68659H46.0553V3.50748H47.5777V0.462708H51.4061V3.50748H53.9135V6.68659H51.4061V11.7015C51.4061 12.0746 51.4956 12.3433 51.6747 12.5075C51.8538 12.6717 52.1523 12.7538 52.5702 12.7538H53.9359Z"></path><path d="M55.3072 9.73137C55.3072 8.44778 55.546 7.32092 56.0236 6.35077C56.5161 5.38062 57.1803 4.63435 58.0161 4.11196C58.8519 3.58957 59.7848 3.32838 60.8146 3.32838C61.6952 3.32838 62.4639 3.50748 63.1206 3.86569C63.7922 4.2239 64.3072 4.69405 64.6654 5.27614V3.50748H68.4937V16H64.6654V14.2314C64.2922 14.8135 63.7699 15.2836 63.0982 15.6418C62.4415 16 61.6728 16.1791 60.7922 16.1791C59.7773 16.1791 58.8519 15.9179 58.0161 15.3955C57.1803 14.8582 56.5161 14.1045 56.0236 13.1344C55.546 12.1493 55.3072 11.0149 55.3072 9.73137ZM64.6654 9.75375C64.6654 8.79853 64.3967 8.0448 63.8594 7.49256C63.337 6.94032 62.6952 6.6642 61.934 6.6642C61.1728 6.6642 60.5236 6.94032 59.9863 7.49256C59.4639 8.02987 59.2027 8.77614 59.2027 9.73137C59.2027 10.6866 59.4639 11.4478 59.9863 12.0149C60.5236 12.5672 61.1728 12.8433 61.934 12.8433C62.6952 12.8433 63.337 12.5672 63.8594 12.0149C64.3967 11.4627 64.6654 10.709 64.6654 9.75375Z"></path></svg>