<svg xmlns="http://www.w3.org/2000/svg" height="800" width="1200" viewBox="-19.999965 -13.341725 173.33303 80.05035"><path d="M68.2156.023c4.7683-.1642 9.5677.553 14.065 2.1489 6.7658 2.375 12.8126 6.7276 17.2371 12.3656 1.9463 2.4734 3.5766 5.1922 4.8542 8.0688.2265.4786.401 1.0166.2797 1.55-.1485.8953-.9333 1.6354-1.836 1.7249-.9375.137-1.9063-.4479-2.2405-1.3312-2.5407-5.9787-6.8767-11.1719-12.2855-14.7667C84.9459 7.549 81.1959 5.922 77.2781 5.011c-5.0521-1.1817-10.3713-1.1817-15.4245-.0036-7.215 1.6615-13.8213 5.8-18.4807 11.5506-1.9756 2.4229-3.6068 5.1238-4.8365 7.9973-.2661.6677-.8776 1.1912-1.591 1.3084-.688.1328-1.437-.1048-1.9167-.6172-.5656-.5667-.7506-1.4724-.459-2.2161 3.3844-8.0016 9.6511-14.7235 17.3558-18.7246C56.9437 1.6792 62.5573.2141 68.2156.023" fill="#f49813"/><path d="M61.9145 24.6599c-.0285-.4156.3647-.7266.7543-.7364.5063-.0136 1.014-.0094 1.5213-.0022.3526.012.764.247.7626.6428.0181 4.6495-.011 9.3004.0156 13.9526 1.8838-2.0948 3.7838-4.1782 5.6744-6.2667.3724-.3672.6666-.9235 1.2458-.9713.7803-.0323 1.5626-.0131 2.3438-.012.301-.0271.637.2489.5313.5702-.1235.248-.35.4183-.535.6152-2.0442 2.0427-4.0963 4.0782-6.1302 6.1296 1.9647 2.2428 3.9021 4.5084 5.8579 6.7595.2516.3203.5666.5921.7776.9453.1546.276-.1016.612-.3975.625-.6495.0364-1.3004 0-1.9515.0156-.3385-.0078-.7046.0417-1.012-.1328-.324-.186-.5208-.5183-.7526-.798-1.8864-2.3755-3.7604-4.7604-5.6536-7.1318-.0194 2.3386-.0058 4.6761-.0074 7.0131-.0072.2698.048.5948-.1869.7917-.374.361-.9307.2343-1.3973.2578-.4142-.014-.8986.0765-1.235-.2292-.1874-.1458-.2365-.3948-.2292-.6161.0052-7.1417-.0021-14.2823.0036-21.422m-8.5932 6.5678c.9459-.3041 2.012-.362 2.9386.039.325.1527.7026.4782.5557.8793-.1484.5036-.275 1.0129-.452 1.5077-.1308.3552-.5428.487-.8896.4177-.7803-.1338-1.5464-.3916-2.3464-.3656-.5583-.013-1.0735.2864-1.4552.6746-.6161.6025-.935 1.4452-1.0781 2.2812-.1136.604-.0812 1.2213-.0864 1.8317 0 2.5651.0009 5.1318-.0006 7.697.0364.4218-.4.7082-.7808.7228-.5229.0073-1.0448.014-1.5672-.0041-.3776-.0198-.8025-.2953-.7536-.7203-.0021-4.75-.0052-9.4985.0011-14.2485-.0323-.4724.491-.7292.9016-.685.515.034 1.2181-.1598 1.553.3585.2542.601.375 1.25.6137 1.8563.7181-.9855 1.6702-1.8543 2.8462-2.2423M0 31.5901c.1453-.1666.3151-.347.5573-.3297.7094-.0068 1.4208-.0224 2.1297.0104.3599.0104.6078.3267.6604.6615.6974 2.836 1.3823 5.676 2.0766 8.513.2036.876.4515 1.7433.5843 2.6344.137.8005.1641 1.613.2943 2.415.1792-1.1447.3396-2.2968.6484-3.415.9079-3.386 1.8151-6.7713 2.724-10.1562.0708-.386.4339-.6604.8198-.6604.7896-.02 1.5807-.0063 2.3703-.0063.4234-.0199.8766.2276.9786.6615.6782 2.4682 1.348 4.941 2.0235 7.4114.4099 1.6.9468 3.173 1.1787 4.8146.064.452.1265.9052.2197 1.3541.2547-2.5791.9183-5.0885 1.4641-7.614.4506-2.0093.8911-4.0208 1.3468-6.0303.0672-.4036.4943-.6066.8704-.5953.6386-.0036 1.2782-.0219 1.9156.0105.3787.011.5963.4296.463.7672-1.2812 4.7276-2.5578 9.4583-3.8395 14.186-.0688.379-.399.675-.786.6811-.9896.0323-1.9812.0079-2.9708.013-.3547.022-.7297-.1682-.7923-.5416-.8858-3.251-1.754-6.5078-2.6317-9.7614-.3177-1.1319-.4463-2.3052-.5797-3.4693-.163 1.0365-.2437 2.09-.5198 3.1084-.8984 3.35-1.802 6.7015-2.7026 10.052-.1015.5427-.7218.651-1.1833.6156-.9203-.0167-1.8406.0214-2.76-.0167-.3275.001-.5801-.2541-.639-.5635C2.6292 41.6313 1.3417 36.9203.049 32.2125c-.0448-.2057-.0391-.4156-.049-.6224m116.0604-.3208c.6719-.0114 1.3464-.0141 2.0183 0 .4088.0058.7932.2854.9218.676 1.1604 3.0323 2.3126 6.0703 3.4714 9.1042.2421.6156.4114 1.2578.5198 1.9099.4791-1.7995 1.1171-3.5506 1.6771-5.3266.6233-1.9203 1.2473-3.841 1.8733-5.762.0928-.3343.4115-.5624.75-.5905.5486-.0407 1.1006-.0052 1.65-.02.3215.0038.7043-.0338.9491.224.1588.1345.125.3578.0588.5324-1.8541 5.289-3.703 10.5807-5.5547 15.8713-.3218.8813-.5693 1.8037-1.0874 2.5964-.7434 1.2073-1.948 2.0765-3.2719 2.5469-.4625.1432-.9401.4609-1.4376.2828-.353-.0901-.4885-.4573-.677-.7271-.1354-.2448-.3854-.4714-.3334-.776.0245-.3021.2667-.548.5521-.6287.5583-.1927 1.126-.4052 1.5782-.7995 1.0989-.9297 1.7786-2.3047 2.0374-3.7042-.1754-.6213-.5-1.1927-.7354-1.7942-1.7682-4.1094-3.5364-8.2203-5.3088-12.3281-.1068-.2688-.2642-.5251-.2943-.8167.0041-.3203.3713-.461.6432-.4703m-82.4448 1.9875c-.9645.1792-1.8443.7797-2.3339 1.635-.8181 1.3869-.9124 3.0603-.8754 4.6333.0582 1.4239.2869 2.9426 1.1953 4.0937.6776.8656 1.791 1.3005 2.8735 1.2838 1.041.0333 2.1317-.3193 2.8374-1.111.9015-.9859 1.1911-2.3541 1.3151-3.6442.0547-1.2671.0803-2.5573-.2484-3.7947-.2615-1.0454-.8136-2.0907-1.7688-2.6538-.889-.5453-1.9875-.5962-2.9948-.4421zm.4073-2.2552c1.7454-.1073 3.574.2552 5.0146 1.289 1.2885.9167 2.1636 2.3293 2.5724 3.8438.486 1.8083.4838 3.738.0432 5.5557-.4151 1.6755-1.3859 3.2552-2.8504 4.2073-1.5652 1.0385-3.5314 1.3083-5.3683 1.087-1.565-.1927-3.0901-.8792-4.1797-2.0323-1.2807-1.3417-1.9167-3.1901-2.049-5.0172-.1609-2.0261.1495-4.1708 1.2766-5.901.8338-1.3022 2.1594-2.2588 3.638-2.6954.6166-.1926 1.26-.2822 1.9026-.337m51.4828 2.173c-.9568.0615-1.8802.612-2.3073 1.4854-.8344 1.6152-.8515 3.4948-.8099 5.2709.0667 1.1604.1927 2.3583.7334 3.4062.3656.7057 1.0297 1.263 1.815 1.4338 1.2016.2891 2.6158.0443 3.4699-.9052.823-.937 1.0937-2.211 1.2203-3.4166.0869-1.3745.0922-2.7771-.249-4.1225-.2344-.8994-.6312-1.7978-1.3437-2.423-.6833-.6014-1.6355-.8332-2.5287-.729zm4.1172-8.7136c-.0218-.3645.3506-.5973.6744-.6254.5183-.0282 1.0382-.0147 1.5574-.009.3958-.0036.8385.2907.7813.7303 0 7.174.0015 14.3468-.001 21.5198.027.3703-.3377.6578-.6798.6802-.413.0218-.827.0218-1.2385-.0068-.2902-.0182-.5714-.2042-.6703-.4818-.1552-.4661-.236-.9505-.3543-1.4244-.5728.777-1.3114 1.4645-2.229 1.8057-1.309.4818-2.7658.4896-4.111.1614-1.3516-.325-2.5286-1.2536-3.1808-2.476-1.0234-1.8661-1.1448-4.0615-1.0806-6.1432.0364-1.7786.376-3.6552 1.5348-5.0666.874-1.1964 2.3062-1.883 3.7526-2.0626 1.3464-.197 2.8063.0296 3.9208.8454.5271.3708.949.868 1.3256 1.388-.0105-2.9443-.0078-5.8896-.0016-8.835m14.487 8.8032c-.4802.0979-.9454.2906-1.3334.591-.776.6042-1.1614 1.5642-1.3672 2.4965-.2994 1.4792-.2953 3.0068-.1405 4.5026.1448 1.099.4208 2.2718 1.2265 3.0844.6563.689 1.6459.9416 2.5719.8963.9959.036 2.0323-.3349 2.6745-1.1172.8031-.9713 1.0296-2.2635 1.1468-3.4807.0746-1.4313.0755-2.8969-.3265-4.2865-.2541-.8656-.7188-1.7265-1.5027-2.2197-.8634-.5667-1.9557-.6188-2.9494-.4667zm-1.3334-1.9646c1.3819-.3828 2.861-.4052 4.2568-.086 1.297.3006 2.5115 1.0286 3.3084 2.1068.8427 1.1052 1.2682 2.4756 1.4452 3.8412.1538 1.053.1095 2.1197.111 3.1807 0 1.9146 0 3.8297-.0052 5.7437.0209.2334-.1266.4401-.3167.5615-.3213.198-.7197.1104-1.0781.1328-.402-.0031-.9307.0323-1.1495-.386-.2135-.4916-.2577-1.04-.3948-1.5572-.539.6552-1.0973 1.3312-1.8776 1.7099-1.1885.5875-2.5781.5531-3.85.3047-1.5563-.3073-2.9896-1.2276-3.8697-2.5537-1.0484-1.5443-1.4287-3.4505-1.4142-5.2927-.0129-1.7959.3386-3.6525 1.3371-5.1719.7984-1.2421 2.0796-2.1416 3.4973-2.5338m27.8334 11.763c-.7902.2901-1.2875 1.2016-1.0859 2.0245.2057.9661 1.3296 1.6255 2.2672 1.2682.8645-.264 1.4099-1.25 1.1416-2.1193-.2355-.978-1.3959-1.5562-2.323-1.1734zm.1094-.413c.4687-.074.978-.0792 1.413.138.7406.3365 1.273 1.1318 1.1928 1.9589.0616.9864-.7683 1.8682-1.7152 2.027-1.0662.2266-2.2135-.5458-2.4307-1.6093-.2803-1.0703.4635-2.275 1.5401-2.5146" fill="#3069b5"/><path d="M130.9396 43.8516a35.432 35.432 0 000 .6734c.1964-.012.3984 0 .5921-.0536.1823-.0756.1642-.3073.1147-.4625-.1885-.1844-.4688-.1365-.7068-.1573zm-.5927-.3646c.5667.0323 1.202-.1276 1.7124.1885.4115.3089.212.9808-.2525 1.124.1339.3541.3203.6833.4905 1.0208-.2145.0042-.4254.0078-.6364.0115a50.119 50.119 0 01-.4478-.9438c-.0928-.0026-.1839-.0036-.2735-.0052-.0016.3151-.0016.6302-.0016.9453-.2005-.0026-.3968-.0052-.5937-.0067.0016-.7787-.0011-1.5573.0026-2.3344" fill="#3069b5"/></svg>